<mxfile host="Electron" agent="Mozilla/5.0 (Macintosh; Intel Mac OS X 10_15_7) AppleWebKit/537.36 (KHTML, like Gecko) draw.io/24.7.8 Chrome/128.0.6613.36 Electron/32.0.1 Safari/537.36" version="24.7.8">
  <diagram name="Page-1" id="FMX3FECHAtgnm2uACLBg">
    <mxGraphModel dx="1495" dy="1006" grid="1" gridSize="10" guides="1" tooltips="1" connect="1" arrows="1" fold="1" page="1" pageScale="1" pageWidth="850" pageHeight="1100" math="0" shadow="0">
      <root>
        <mxCell id="0" />
        <mxCell id="1" parent="0" />
        <mxCell id="-x9oI0Jo_NXJGb28lq5Y-4" value="" style="edgeStyle=orthogonalEdgeStyle;rounded=0;orthogonalLoop=1;jettySize=auto;html=1;" edge="1" parent="1" source="-x9oI0Jo_NXJGb28lq5Y-1" target="-x9oI0Jo_NXJGb28lq5Y-3">
          <mxGeometry relative="1" as="geometry" />
        </mxCell>
        <mxCell id="-x9oI0Jo_NXJGb28lq5Y-1" value="Connect UI&lt;div&gt;- name&lt;/div&gt;&lt;div&gt;-session ID&lt;/div&gt;&lt;div&gt;- potentially passcode&lt;/div&gt;" style="shape=parallelogram;perimeter=parallelogramPerimeter;whiteSpace=wrap;html=1;fixedSize=1;" vertex="1" parent="1">
          <mxGeometry x="160" y="470" width="120" height="60" as="geometry" />
        </mxCell>
        <mxCell id="-x9oI0Jo_NXJGb28lq5Y-6" value="" style="edgeStyle=orthogonalEdgeStyle;rounded=0;orthogonalLoop=1;jettySize=auto;html=1;" edge="1" parent="1" source="-x9oI0Jo_NXJGb28lq5Y-3" target="-x9oI0Jo_NXJGb28lq5Y-5">
          <mxGeometry relative="1" as="geometry" />
        </mxCell>
        <mxCell id="-x9oI0Jo_NXJGb28lq5Y-8" value="" style="edgeStyle=orthogonalEdgeStyle;rounded=0;orthogonalLoop=1;jettySize=auto;html=1;" edge="1" parent="1" source="-x9oI0Jo_NXJGb28lq5Y-3" target="-x9oI0Jo_NXJGb28lq5Y-7">
          <mxGeometry relative="1" as="geometry" />
        </mxCell>
        <mxCell id="-x9oI0Jo_NXJGb28lq5Y-3" value="Establish Connection" style="whiteSpace=wrap;html=1;" vertex="1" parent="1">
          <mxGeometry x="360" y="470" width="120" height="60" as="geometry" />
        </mxCell>
        <mxCell id="-x9oI0Jo_NXJGb28lq5Y-18" style="edgeStyle=orthogonalEdgeStyle;rounded=0;orthogonalLoop=1;jettySize=auto;html=1;entryX=0;entryY=0.5;entryDx=0;entryDy=0;" edge="1" parent="1" source="-x9oI0Jo_NXJGb28lq5Y-5" target="-x9oI0Jo_NXJGb28lq5Y-16">
          <mxGeometry relative="1" as="geometry" />
        </mxCell>
        <mxCell id="-x9oI0Jo_NXJGb28lq5Y-5" value="API" style="ellipse;shape=cloud;whiteSpace=wrap;html=1;" vertex="1" parent="1">
          <mxGeometry x="360" y="320" width="120" height="80" as="geometry" />
        </mxCell>
        <mxCell id="-x9oI0Jo_NXJGb28lq5Y-10" value="" style="edgeStyle=orthogonalEdgeStyle;rounded=0;orthogonalLoop=1;jettySize=auto;html=1;" edge="1" parent="1" source="-x9oI0Jo_NXJGb28lq5Y-7" target="-x9oI0Jo_NXJGb28lq5Y-9">
          <mxGeometry relative="1" as="geometry" />
        </mxCell>
        <mxCell id="-x9oI0Jo_NXJGb28lq5Y-17" value="" style="edgeStyle=orthogonalEdgeStyle;rounded=0;orthogonalLoop=1;jettySize=auto;html=1;" edge="1" parent="1" source="-x9oI0Jo_NXJGb28lq5Y-16" target="-x9oI0Jo_NXJGb28lq5Y-7">
          <mxGeometry relative="1" as="geometry" />
        </mxCell>
        <mxCell id="-x9oI0Jo_NXJGb28lq5Y-7" value="Session UI&lt;div&gt;- reservations&lt;/div&gt;&lt;div&gt;- exit&lt;/div&gt;" style="shape=parallelogram;perimeter=parallelogramPerimeter;whiteSpace=wrap;html=1;fixedSize=1;" vertex="1" parent="1">
          <mxGeometry x="560" y="470" width="120" height="60" as="geometry" />
        </mxCell>
        <mxCell id="-x9oI0Jo_NXJGb28lq5Y-12" value="" style="edgeStyle=orthogonalEdgeStyle;rounded=0;orthogonalLoop=1;jettySize=auto;html=1;" edge="1" parent="1" source="-x9oI0Jo_NXJGb28lq5Y-11" target="-x9oI0Jo_NXJGb28lq5Y-9">
          <mxGeometry relative="1" as="geometry" />
        </mxCell>
        <mxCell id="-x9oI0Jo_NXJGb28lq5Y-15" value="" style="edgeStyle=orthogonalEdgeStyle;rounded=0;orthogonalLoop=1;jettySize=auto;html=1;" edge="1" parent="1" source="-x9oI0Jo_NXJGb28lq5Y-9" target="-x9oI0Jo_NXJGb28lq5Y-14">
          <mxGeometry relative="1" as="geometry" />
        </mxCell>
        <mxCell id="-x9oI0Jo_NXJGb28lq5Y-9" value="Song Book UI&lt;div&gt;- song lookup&lt;/div&gt;&lt;div&gt;- reserve&lt;/div&gt;" style="shape=parallelogram;perimeter=parallelogramPerimeter;whiteSpace=wrap;html=1;fixedSize=1;" vertex="1" parent="1">
          <mxGeometry x="760" y="470" width="120" height="60" as="geometry" />
        </mxCell>
        <mxCell id="-x9oI0Jo_NXJGb28lq5Y-13" style="edgeStyle=orthogonalEdgeStyle;rounded=0;orthogonalLoop=1;jettySize=auto;html=1;" edge="1" parent="1" source="-x9oI0Jo_NXJGb28lq5Y-5" target="-x9oI0Jo_NXJGb28lq5Y-11">
          <mxGeometry relative="1" as="geometry" />
        </mxCell>
        <mxCell id="-x9oI0Jo_NXJGb28lq5Y-11" value="Get list of songs" style="whiteSpace=wrap;html=1;" vertex="1" parent="1">
          <mxGeometry x="760" y="330" width="120" height="60" as="geometry" />
        </mxCell>
        <mxCell id="-x9oI0Jo_NXJGb28lq5Y-14" value="Download UI&lt;div&gt;- song lookup&lt;/div&gt;&lt;div&gt;- song fill up&lt;/div&gt;&lt;div&gt;-reserve&lt;/div&gt;" style="shape=parallelogram;perimeter=parallelogramPerimeter;whiteSpace=wrap;html=1;fixedSize=1;" vertex="1" parent="1">
          <mxGeometry x="960" y="470" width="120" height="60" as="geometry" />
        </mxCell>
        <mxCell id="-x9oI0Jo_NXJGb28lq5Y-16" value="Socket.io&lt;div&gt;- actively update song list&lt;/div&gt;" style="whiteSpace=wrap;html=1;" vertex="1" parent="1">
          <mxGeometry x="560" y="380" width="120" height="60" as="geometry" />
        </mxCell>
      </root>
    </mxGraphModel>
  </diagram>
</mxfile>
